solid cubes (repaired)
 facet normal -0.707108 0.000000 0.707106
  outer loop
   vertex -5.000000 5.000000 2.071070
   vertex -8.535530 0.000000 -1.464470
   vertex -5.000000 -5.000000 2.071070
  endloop
 endfacet
 facet normal -0.500000 -0.707107 -0.500000
  outer loop
   vertex -5.000000 -5.000000 2.071070
   vertex -8.535530 0.000000 -1.464470
   vertex -5.000000 0.000000 -5.000000
  endloop
 endfacet
 facet normal -0.500000 0.707107 -0.500000
  outer loop
   vertex -5.000000 0.000000 -5.000000
   vertex -8.535530 0.000000 -1.464470
   vertex -5.000000 5.000000 2.071070
  endloop
 endfacet
 facet normal -1.000000 0.000000 0.000000
  outer loop
   vertex -5.000000 5.000000 2.071070
   vertex -5.000000 5.000000 -5.000000
   vertex -5.000000 0.000000 -5.000000
  endloop
 endfacet
 facet normal -1.000000 0.000000 0.000000
  outer loop
   vertex -5.000000 5.000000 2.071070
   vertex -5.000000 -5.000000 5.000000
   vertex -5.000000 5.000000 5.000000
  endloop
 endfacet
 facet normal -1.000000 0.000000 0.000000
  outer loop
   vertex -5.000000 -5.000000 -5.000000
   vertex -5.000000 -5.000000 2.071070
   vertex -5.000000 0.000000 -5.000000
  endloop
 endfacet
 facet normal -1.000000 0.000000 0.000000
  outer loop
   vertex -5.000000 -5.000000 2.071070
   vertex -5.000000 -5.000000 5.000000
   vertex -5.000000 5.000000 2.071070
  endloop
 endfacet
 facet normal 0.000000 0.000000 -1.000000
  outer loop
   vertex -5.000000 0.000000 -5.000000
   vertex -5.000000 5.000000 -5.000000
   vertex 2.071070 5.000000 -5.000000
  endloop
 endfacet
 facet normal 0.000000 0.000000 -1.000000
  outer loop
   vertex 5.000000 -5.000000 -5.000000
   vertex 2.071070 5.000000 -5.000000
   vertex 5.000000 5.000000 -5.000000
  endloop
 endfacet
 facet normal 0.000000 0.000000 -1.000000
  outer loop
   vertex -5.000000 -5.000000 -5.000000
   vertex -5.000000 0.000000 -5.000000
   vertex 2.071070 -5.000000 -5.000000
  endloop
 endfacet
 facet normal 0.000000 0.000000 -1.000000
  outer loop
   vertex 2.071070 5.000000 -5.000000
   vertex 5.000000 -5.000000 -5.000000
   vertex 2.071070 -5.000000 -5.000000
  endloop
 endfacet
 facet normal 0.000000 1.000000 0.000000
  outer loop
   vertex 5.000000 5.000000 -2.071070
   vertex 5.000000 5.000000 -5.000000
   vertex 2.071070 5.000000 -5.000000
  endloop
 endfacet
 facet normal 0.000000 1.000000 0.000000
  outer loop
   vertex 5.000000 5.000000 -2.071070
   vertex -2.071070 5.000000 5.000000
   vertex 5.000000 5.000000 5.000000
  endloop
 endfacet
 facet normal 0.000000 1.000000 0.000000
  outer loop
   vertex -5.000000 5.000000 -5.000000
   vertex -5.000000 5.000000 2.071070
   vertex 2.071070 5.000000 -5.000000
  endloop
 endfacet
 facet normal 0.000000 1.000000 0.000000
  outer loop
   vertex -5.000000 5.000000 2.071070
   vertex -5.000000 5.000000 5.000000
   vertex -2.071070 5.000000 5.000000
  endloop
 endfacet
 facet normal 0.000000 0.000000 1.000000
  outer loop
   vertex -5.000000 5.000000 5.000000
   vertex -5.000000 -5.000000 5.000000
   vertex -2.071070 -5.000000 5.000000
  endloop
 endfacet
 facet normal 0.000000 0.000000 1.000000
  outer loop
   vertex 5.000000 5.000000 5.000000
   vertex -2.071070 5.000000 5.000000
   vertex 5.000000 0.000000 5.000000
  endloop
 endfacet
 facet normal 0.000000 0.000000 1.000000
  outer loop
   vertex -2.071070 -5.000000 5.000000
   vertex -2.071070 5.000000 5.000000
   vertex -5.000000 5.000000 5.000000
  endloop
 endfacet
 facet normal 0.000000 0.000000 1.000000
  outer loop
   vertex 5.000000 0.000000 5.000000
   vertex -2.071070 -5.000000 5.000000
   vertex 5.000000 -5.000000 5.000000
  endloop
 endfacet
 facet normal 0.000000 -1.000000 0.000000
  outer loop
   vertex 5.000000 -5.000000 5.000000
   vertex -2.071070 -5.000000 5.000000
   vertex 5.000000 -5.000000 -2.071070
  endloop
 endfacet
 facet normal 0.000000 -1.000000 0.000000
  outer loop
   vertex -5.000000 -5.000000 2.071070
   vertex -5.000000 -5.000000 -5.000000
   vertex 2.071070 -5.000000 -5.000000
  endloop
 endfacet
 facet normal 0.000000 -1.000000 0.000000
  outer loop
   vertex -5.000000 -5.000000 2.071070
   vertex -2.071070 -5.000000 5.000000
   vertex -5.000000 -5.000000 5.000000
  endloop
 endfacet
 facet normal 0.000000 -1.000000 0.000000
  outer loop
   vertex 5.000000 -5.000000 -2.071070
   vertex 2.071070 -5.000000 -5.000000
   vertex 5.000000 -5.000000 -5.000000
  endloop
 endfacet
 facet normal 1.000000 0.000000 0.000000
  outer loop
   vertex 5.000000 -5.000000 -2.071070
   vertex 5.000000 -5.000000 -5.000000
   vertex 5.000000 5.000000 -5.000000
  endloop
 endfacet
 facet normal 1.000000 0.000000 0.000000
  outer loop
   vertex 5.000000 5.000000 5.000000
   vertex 5.000000 0.000000 5.000000
   vertex 5.000000 5.000000 -2.071070
  endloop
 endfacet
 facet normal 1.000000 0.000000 0.000000
  outer loop
   vertex 5.000000 -5.000000 -2.071070
   vertex 5.000000 0.000000 5.000000
   vertex 5.000000 -5.000000 5.000000
  endloop
 endfacet
 facet normal 1.000000 0.000000 0.000000
  outer loop
   vertex 5.000000 5.000000 -2.071070
   vertex 5.000000 -5.000000 -2.071070
   vertex 5.000000 5.000000 -5.000000
  endloop
 endfacet
 facet normal -0.500000 0.707107 -0.500000
  outer loop
   vertex -1.464470 0.000000 -8.535530
   vertex -5.000000 0.000000 -5.000000
   vertex 2.071070 5.000000 -5.000000
  endloop
 endfacet
 facet normal 0.707106 0.000000 -0.707108
  outer loop
   vertex 2.071070 -5.000000 -5.000000
   vertex -1.464470 0.000000 -8.535530
   vertex 2.071070 5.000000 -5.000000
  endloop
 endfacet
 facet normal -0.500000 -0.707107 -0.500000
  outer loop
   vertex 2.071070 -5.000000 -5.000000
   vertex -5.000000 0.000000 -5.000000
   vertex -1.464470 0.000000 -8.535530
  endloop
 endfacet
 facet normal -0.707107 0.000003 0.707107
  outer loop
   vertex -3.535530 7.071070 3.535530
   vertex -5.000000 5.000000 2.071070
   vertex -2.071070 5.000000 5.000000
  endloop
 endfacet
 facet normal 0.500000 0.707106 0.500000
  outer loop
   vertex -3.535530 7.071070 3.535530
   vertex -2.071070 5.000000 5.000000
   vertex 3.535530 7.071070 -3.535530
  endloop
 endfacet
 facet normal 0.500000 0.707106 0.500000
  outer loop
   vertex 3.535530 7.071070 -3.535530
   vertex -2.071070 5.000000 5.000000
   vertex 5.000000 5.000000 -2.071070
  endloop
 endfacet
 facet normal 0.707107 0.000003 -0.707107
  outer loop
   vertex 5.000000 5.000000 -2.071070
   vertex 2.071070 5.000000 -5.000000
   vertex 3.535530 7.071070 -3.535530
  endloop
 endfacet
 facet normal -0.500000 0.707106 -0.500000
  outer loop
   vertex -5.000000 5.000000 2.071070
   vertex -3.535530 7.071070 3.535530
   vertex 2.071070 5.000000 -5.000000
  endloop
 endfacet
 facet normal -0.500001 0.707106 -0.500000
  outer loop
   vertex 2.071070 5.000000 -5.000000
   vertex -3.535530 7.071070 3.535530
   vertex 3.535530 7.071070 -3.535530
  endloop
 endfacet
 facet normal -0.707106 0.000000 0.707108
  outer loop
   vertex 1.464470 0.000000 8.535530
   vertex -2.071070 5.000000 5.000000
   vertex -2.071070 -5.000000 5.000000
  endloop
 endfacet
 facet normal 0.500000 -0.707107 0.500000
  outer loop
   vertex 1.464470 0.000000 8.535530
   vertex -2.071070 -5.000000 5.000000
   vertex 5.000000 0.000000 5.000000
  endloop
 endfacet
 facet normal 0.500000 0.707107 0.500000
  outer loop
   vertex 5.000000 0.000000 5.000000
   vertex -2.071070 5.000000 5.000000
   vertex 1.464470 0.000000 8.535530
  endloop
 endfacet
 facet normal -0.707107 -0.000003 0.707107
  outer loop
   vertex -2.071070 -5.000000 5.000000
   vertex -5.000000 -5.000000 2.071070
   vertex -3.535530 -7.071070 3.535530
  endloop
 endfacet
 facet normal -0.500000 -0.707106 -0.500000
  outer loop
   vertex -3.535530 -7.071070 3.535530
   vertex -5.000000 -5.000000 2.071070
   vertex 2.071070 -5.000000 -5.000000
  endloop
 endfacet
 facet normal -0.500000 -0.707106 -0.500000
  outer loop
   vertex 3.535530 -7.071070 -3.535530
   vertex -3.535530 -7.071070 3.535530
   vertex 2.071070 -5.000000 -5.000000
  endloop
 endfacet
 facet normal 0.707107 -0.000003 -0.707107
  outer loop
   vertex 3.535530 -7.071070 -3.535530
   vertex 2.071070 -5.000000 -5.000000
   vertex 5.000000 -5.000000 -2.071070
  endloop
 endfacet
 facet normal 0.500001 -0.707106 0.500000
  outer loop
   vertex -2.071070 -5.000000 5.000000
   vertex -3.535530 -7.071070 3.535530
   vertex 3.535530 -7.071070 -3.535530
  endloop
 endfacet
 facet normal 0.500000 -0.707106 0.500000
  outer loop
   vertex 5.000000 -5.000000 -2.071070
   vertex -2.071070 -5.000000 5.000000
   vertex 3.535530 -7.071070 -3.535530
  endloop
 endfacet
 facet normal 0.707108 0.000000 -0.707106
  outer loop
   vertex 8.535530 0.000000 1.464470
   vertex 5.000000 -5.000000 -2.071070
   vertex 5.000000 5.000000 -2.071070
  endloop
 endfacet
 facet normal 0.500000 -0.707107 0.500000
  outer loop
   vertex 5.000000 0.000000 5.000000
   vertex 5.000000 -5.000000 -2.071070
   vertex 8.535530 0.000000 1.464470
  endloop
 endfacet
 facet normal 0.500000 0.707107 0.500000
  outer loop
   vertex 5.000000 5.000000 -2.071070
   vertex 5.000000 0.000000 5.000000
   vertex 8.535530 0.000000 1.464470
  endloop
 endfacet
endsolid cubes (repaired)
